<mxfile host="app.diagrams.net" modified="2023-11-15T14:23:12.742Z" agent="Mozilla/5.0 (Windows NT 10.0; Win64; x64) AppleWebKit/537.36 (KHTML, like Gecko) Chrome/119.0.0.0 Safari/537.36" etag="YQnJJJJJJJJJJJJJJJJJ" version="21.8.2" type="device">
  <diagram name="Page-1" id="c7558073-3199-34d8-9f00-42111426c3f3">
    <mxGraphModel dx="1050" dy="541" grid="1" gridSize="10" guides="1" tooltips="1" connect="1" arrows="1" fold="1" page="1" pageScale="1" pageWidth="826" pageHeight="1169" background="none" math="0" shadow="0">
      <root>
        <mxCell id="0" />
        <mxCell id="1" parent="0" />
        <mxCell id="2" value="ADMIN" style="whiteSpace=wrap;align=center;verticalAlign=middle;fontStyle=1;strokeWidth=3;fillColor=#FFFFFF;fontSize=14;" parent="1" vertex="1">
          <mxGeometry x="40" y="120" width="120" height="60" as="geometry" />
        </mxCell>
        <mxCell id="3" value="USER" style="whiteSpace=wrap;align=center;verticalAlign=middle;fontStyle=1;strokeWidth=3;fillColor=#FFFFFF;fontSize=14;" parent="1" vertex="1">
          <mxGeometry x="640" y="120" width="120" height="60" as="geometry" />
        </mxCell>
        <mxCell id="4" value="USER&#xa;MANAGEMENT" style="ellipse;whiteSpace=wrap;html=1;aspect=fixed;fontSize=14;fontStyle=1;strokeWidth=3;fillColor=#FFFFFF" parent="1" vertex="1">
          <mxGeometry x="340" y="90" width="120" height="120" as="geometry" />
        </mxCell>
        <mxCell id="5" value="EMPLOYEE&#xa;MANAGEMENT" style="ellipse;whiteSpace=wrap;html=1;aspect=fixed;fontSize=14;fontStyle=1;strokeWidth=3;fillColor=#FFFFFF" parent="1" vertex="1">
          <mxGeometry x="340" y="210" width="120" height="120" as="geometry" />
        </mxCell>
        <mxCell id="6" value="INVENTORY&#xa;MANAGEMENT" style="ellipse;whiteSpace=wrap;html=1;aspect=fixed;fontSize=14;fontStyle=1;strokeWidth=3;fillColor=#FFFFFF" parent="1" vertex="1">
          <mxGeometry x="140" y="330" width="120" height="120" as="geometry" />
        </mxCell>
        <mxCell id="7" value="SALES&#xa;MANAGEMENT" style="ellipse;whiteSpace=wrap;html=1;aspect=fixed;fontSize=14;fontStyle=1;strokeWidth=3;fillColor=#FFFFFF" parent="1" vertex="1">
          <mxGeometry x="340" y="330" width="120" height="120" as="geometry" />
        </mxCell>
        <mxCell id="8" value="CUSTOMER&#xa;MANAGEMENT" style="ellipse;whiteSpace=wrap;html=1;aspect=fixed;fontSize=14;fontStyle=1;strokeWidth=3;fillColor=#FFFFFF" parent="1" vertex="1">
          <mxGeometry x="540" y="330" width="120" height="120" as="geometry" />
        </mxCell>
        <mxCell id="9" value="FINANCE&#xa;MANAGEMENT" style="ellipse;whiteSpace=wrap;html=1;aspect=fixed;fontSize=14;fontStyle=1;strokeWidth=3;fillColor=#FFFFFF" parent="1" vertex="1">
          <mxGeometry x="140" y="450" width="120" height="120" as="geometry" />
        </mxCell>
        <mxCell id="10" value="BUDGET&#xa;MANAGEMENT" style="ellipse;whiteSpace=wrap;html=1;aspect=fixed;fontSize=14;fontStyle=1;strokeWidth=3;fillColor=#FFFFFF" parent="1" vertex="1">
          <mxGeometry x="340" y="450" width="120" height="120" as="geometry" />
        </mxCell>
        <mxCell id="11" value="PROJECT&#xa;MANAGEMENT" style="ellipse;whiteSpace=wrap;html=1;aspect=fixed;fontSize=14;fontStyle=1;strokeWidth=3;fillColor=#FFFFFF" parent="1" vertex="1">
          <mxGeometry x="540" y="450" width="120" height="120" as="geometry" />
        </mxCell>
        <mxCell id="12" value="ANALYTICS&#xa;ENGINE" style="ellipse;whiteSpace=wrap;html=1;aspect=fixed;fontSize=14;fontStyle=1;strokeWidth=3;fillColor=#FFFFFF" parent="1" vertex="1">
          <mxGeometry x="140" y="570" width="120" height="120" as="geometry" />
        </mxCell>
        <mxCell id="13" value="NOTIFICATION&#xa;SYSTEM" style="ellipse;whiteSpace=wrap;html=1;aspect=fixed;fontSize=14;fontStyle=1;strokeWidth=3;fillColor=#FFFFFF" parent="1" vertex="1">
          <mxGeometry x="340" y="570" width="120" height="120" as="geometry" />
        </mxCell>
        <mxCell id="14" value="USER&#xa;DATABASE" style="shape=partialRectangle;whiteSpace=wrap;html=1;left=0;right=0;fillColor=none;fontSize=14;fontStyle=1;strokeWidth=3;" parent="1" vertex="1">
          <mxGeometry x="340" y="210" width="120" height="40" as="geometry" />
        </mxCell>
        <mxCell id="15" value="EMPLOYEE&#xa;DATABASE" style="shape=partialRectangle;whiteSpace=wrap;html=1;left=0;right=0;fillColor=none;fontSize=14;fontStyle=1;strokeWidth=3;" parent="1" vertex="1">
          <mxGeometry x="340" y="330" width="120" height="40" as="geometry" />
        </mxCell>
        <mxCell id="16" value="INVENTORY&#xa;DATABASE" style="shape=partialRectangle;whiteSpace=wrap;html=1;left=0;right=0;fillColor=none;fontSize=14;fontStyle=1;strokeWidth=3;" parent="1" vertex="1">
          <mxGeometry x="140" y="450" width="120" height="40" as="geometry" />
        </mxCell>
        <mxCell id="17" value="SALES&#xa;DATABASE" style="shape=partialRectangle;whiteSpace=wrap;html=1;left=0;right=0;fillColor=none;fontSize=14;fontStyle=1;strokeWidth=3;" parent="1" vertex="1">
          <mxGeometry x="340" y="450" width="120" height="40" as="geometry" />
        </mxCell>
        <mxCell id="18" value="CUSTOMER&#xa;DATABASE" style="shape=partialRectangle;whiteSpace=wrap;html=1;left=0;right=0;fillColor=none;fontSize=14;fontStyle=1;strokeWidth=3;" parent="1" vertex="1">
          <mxGeometry x="540" y="450" width="120" height="40" as="geometry" />
        </mxCell>
        <mxCell id="19" value="TRANSACTION&#xa;DATABASE" style="shape=partialRectangle;whiteSpace=wrap;html=1;left=0;right=0;fillColor=none;fontSize=14;fontStyle=1;strokeWidth=3;" parent="1" vertex="1">
          <mxGeometry x="140" y="570" width="120" height="40" as="geometry" />
        </mxCell>
        <mxCell id="20" value="BUDGET&#xa;DATABASE" style="shape=partialRectangle;whiteSpace=wrap;html=1;left=0;right=0;fillColor=none;fontSize=14;fontStyle=1;strokeWidth=3;" parent="1" vertex="1">
          <mxGeometry x="340" y="570" width="120" height="40" as="geometry" />
        </mxCell>
        <mxCell id="21" value="PROJECT&#xa;DATABASE" style="shape=partialRectangle;whiteSpace=wrap;html=1;left=0;right=0;fillColor=none;fontSize=14;fontStyle=1;strokeWidth=3;" parent="1" vertex="1">
          <mxGeometry x="540" y="570" width="120" height="40" as="geometry" />
        </mxCell>
        <mxCell id="22" value="REPORTS&#xa;DATABASE" style="shape=partialRectangle;whiteSpace=wrap;html=1;left=0;right=0;fillColor=none;fontSize=14;fontStyle=1;strokeWidth=3;" parent="1" vertex="1">
          <mxGeometry x="140" y="690" width="120" height="40" as="geometry" />
        </mxCell>
        <mxCell id="23" value="NOTIFICATION&#xa;DATABASE" style="shape=partialRectangle;whiteSpace=wrap;html=1;left=0;right=0;fillColor=none;fontSize=14;fontStyle=1;strokeWidth=3;" parent="1" vertex="1">
          <mxGeometry x="340" y="690" width="120" height="40" as="geometry" />
        </mxCell>
        <mxCell id="24" value="MANAGER" style="whiteSpace=wrap;align=center;verticalAlign=middle;fontStyle=1;strokeWidth=3;fillColor=#FFFFFF;fontSize=14;" parent="1" vertex="1">
          <mxGeometry x="40" y="360" width="120" height="60" as="geometry" />
        </mxCell>
        <mxCell id="25" value="CUSTOMER" style="whiteSpace=wrap;align=center;verticalAlign=middle;fontStyle=1;strokeWidth=3;fillColor=#FFFFFF;fontSize=14;" parent="1" vertex="1">
          <mxGeometry x="640" y="360" width="120" height="60" as="geometry" />
        </mxCell>
        <mxCell id="26" value="FINANCE&#xa;MANAGER" style="whiteSpace=wrap;align=center;verticalAlign=middle;fontStyle=1;strokeWidth=3;fillColor=#FFFFFF;fontSize=14;" parent="1" vertex="1">
          <mxGeometry x="40" y="480" width="120" height="60" as="geometry" />
        </mxCell>
        <mxCell id="27" value="PROJECT&#xa;MANAGER" style="whiteSpace=wrap;align=center;verticalAlign=middle;fontStyle=1;strokeWidth=3;fillColor=#FFFFFF;fontSize=14;" parent="1" vertex="1">
          <mxGeometry x="640" y="480" width="120" height="60" as="geometry" />
        </mxCell>
        <mxCell id="28" value="EMPLOYEE" style="whiteSpace=wrap;align=center;verticalAlign=middle;fontStyle=1;strokeWidth=3;fillColor=#FFFFFF;fontSize=14;" parent="1" vertex="1">
          <mxGeometry x="640" y="240" width="120" height="60" as="geometry" />
        </mxCell>
        <mxCell id="29" value="" style="edgeStyle=elbowEdgeStyle;elbow=horizontal;exitX=1;exitY=0.5;exitPerimeter=0;entryX=0;entryY=0.5;entryPerimeter=0;fontStyle=1;strokeColor=#000000;strokeWidth=1;html=1;" parent="1" source="2" target="4" edge="1">
          <mxGeometry width="100" height="100" as="geometry">
            <mxPoint x="160" y="150" as="sourcePoint" />
            <mxPoint x="260" y="50" as="targetPoint" />
          </mxGeometry>
        </mxCell>
        <mxCell id="30" value="" style="edgeStyle=elbowEdgeStyle;elbow=horizontal;exitX=0;exitY=0.5;exitPerimeter=0;entryX=1;entryY=0.5;entryPerimeter=0;fontStyle=1;strokeColor=#000000;strokeWidth=1;html=1;" parent="1" source="3" target="4" edge="1">
          <mxGeometry width="100" height="100" as="geometry">
            <mxPoint x="640" y="150" as="sourcePoint" />
            <mxPoint x="540" y="50" as="targetPoint" />
          </mxGeometry>
        </mxCell>
        <mxCell id="31" value="" style="edgeStyle=elbowEdgeStyle;elbow=vertical;exitX=0.5;exitY=1;exitPerimeter=0;entryX=0.5;entryY=0;entryPerimeter=0;fontStyle=1;strokeColor=#000000;strokeWidth=1;html=1;" parent="1" source="4" target="14" edge="1">
          <mxGeometry width="100" height="100" as="geometry">
            <mxPoint x="400" y="180" as="sourcePoint" />
            <mxPoint x="400" y="180" as="targetPoint" />
          </mxGeometry>
        </mxCell>
        <mxCell id="32" value="" style="edgeStyle=elbowEdgeStyle;elbow=horizontal;exitX=1;exitY=0.5;exitPerimeter=0;entryX=0;entryY=0.5;entryPerimeter=0;fontStyle=1;strokeColor=#000000;strokeWidth=1;html=1;" parent="1" source="2" target="5" edge="1">
          <mxGeometry width="100" height="100" as="geometry">
            <mxPoint x="160" y="150" as="sourcePoint" />
            <mxPoint x="340" y="270" as="targetPoint" />
            <Array as="points">
              <mxPoint x="200" y="200" />
            </Array>
          </mxGeometry>
        </mxCell>
        <mxCell id="33" value="" style="edgeStyle=elbowEdgeStyle;elbow=horizontal;exitX=0;exitY=0.5;exitPerimeter=0;entryX=1;entryY=0.5;entryPerimeter=0;fontStyle=1;strokeColor=#000000;strokeWidth=1;html=1;" parent="1" source="28" target="5" edge="1">
          <mxGeometry width="100" height="100" as="geometry">
            <mxPoint x="640" y="270" as="sourcePoint" />
            <mxPoint x="460" y="270" as="targetPoint" />
          </mxGeometry>
        </mxCell>
        <mxCell id="34" value="" style="edgeStyle=elbowEdgeStyle;elbow=vertical;exitX=0.5;exitY=1;exitPerimeter=0;entryX=0.5;entryY=0;entryPerimeter=0;fontStyle=1;strokeColor=#000000;strokeWidth=1;html=1;" parent="1" source="5" target="15" edge="1">
          <mxGeometry width="100" height="100" as="geometry">
            <mxPoint x="400" y="300" as="sourcePoint" />
            <mxPoint x="400" y="300" as="targetPoint" />
          </mxGeometry>
        </mxCell>
        <mxCell id="35" value="" style="edgeStyle=elbowEdgeStyle;elbow=horizontal;exitX=1;exitY=0.5;exitPerimeter=0;entryX=0;entryY=0.5;entryPerimeter=0;fontStyle=1;strokeColor=#000000;strokeWidth=1;html=1;" parent="1" source="24" target="6" edge="1">
          <mxGeometry width="100" height="100" as="geometry">
            <mxPoint x="160" y="390" as="sourcePoint" />
            <mxPoint x="260" y="290" as="targetPoint" />
          </mxGeometry>
        </mxCell>
        <mxCell id="36" value="" style="edgeStyle=elbowEdgeStyle;elbow=horizontal;exitX=1;exitY=0.5;exitPerimeter=0;entryX=0;entryY=0.5;entryPerimeter=0;fontStyle=1;strokeColor=#000000;strokeWidth=1;html=1;" parent="1" source="6" target="7" edge="1">
          <mxGeometry width="100" height="100" as="geometry">
            <mxPoint x="260" y="390" as="sourcePoint" />
            <mxPoint x="360" y="290" as="targetPoint" />
          </mxGeometry>
        </mxCell>
        <mxCell id="37" value="" style="edgeStyle=elbowEdgeStyle;elbow=horizontal;exitX=1;exitY=0.5;exitPerimeter=0;entryX=0;entryY=0.5;entryPerimeter=0;fontStyle=1;strokeColor=#000000;strokeWidth=1;html=1;" parent="1" source="7" target="8" edge="1">
          <mxGeometry width="100" height="100" as="geometry">
            <mxPoint x="460" y="390" as="sourcePoint" />
            <mxPoint x="560" y="290" as="targetPoint" />
          </mxGeometry>
        </mxCell>
        <mxCell id="38" value="" style="edgeStyle=elbowEdgeStyle;elbow=horizontal;exitX=0;exitY=0.5;exitPerimeter=0;entryX=1;entryY=0.5;entryPerimeter=0;fontStyle=1;strokeColor=#000000;strokeWidth=1;html=1;" parent="1" source="25" target="8" edge="1">
          <mxGeometry width="100" height="100" as="geometry">
            <mxPoint x="640" y="390" as="sourcePoint" />
            <mxPoint x="540" y="290" as="targetPoint" />
          </mxGeometry>
        </mxCell>
        <mxCell id="39" value="" style="edgeStyle=elbowEdgeStyle;elbow=vertical;exitX=0.5;exitY=1;exitPerimeter=0;entryX=0.5;entryY=0;entryPerimeter=0;fontStyle=1;strokeColor=#000000;strokeWidth=1;html=1;" parent="1" source="6" target="16" edge="1">
          <mxGeometry width="100" height="100" as="geometry">
            <mxPoint x="200" y="420" as="sourcePoint" />
            <mxPoint x="300" y="320" as="targetPoint" />
          </mxGeometry>
        </mxCell>
        <mxCell id="40" value="" style="edgeStyle=elbowEdgeStyle;elbow=vertical;exitX=0.5;exitY=1;exitPerimeter=0;entryX=0.5;entryY=0;entryPerimeter=0;fontStyle=1;strokeColor=#000000;strokeWidth=1;html=1;" parent="1" source="7" target="17" edge="1">
          <mxGeometry width="100" height="100" as="geometry">
            <mxPoint x="400" y="420" as="sourcePoint" />
            <mxPoint x="500" y="320" as="targetPoint" />
          </mxGeometry>
        </mxCell>
        <mxCell id="41" value="" style="edgeStyle=elbowEdgeStyle;elbow=vertical;exitX=0.5;exitY=1;exitPerimeter=0;entryX=0.5;entryY=0;entryPerimeter=0;fontStyle=1;strokeColor=#000000;strokeWidth=1;html=1;" parent="1" source="8" target="18" edge="1">
          <mxGeometry width="100" height="100" as="geometry">
            <mxPoint x="600" y="420" as="sourcePoint" />
            <mxPoint x="700" y="320" as="targetPoint" />
          </mxGeometry>
        </mxCell>
        <mxCell id="42" value="" style="edgeStyle=elbowEdgeStyle;elbow=horizontal;exitX=1;exitY=0.5;exitPerimeter=0;entryX=0;entryY=0.5;entryPerimeter=0;fontStyle=1;strokeColor=#000000;strokeWidth=1;html=1;" parent="1" source="26" target="9" edge="1">
          <mxGeometry width="100" height="100" as="geometry">
            <mxPoint x="160" y="510" as="sourcePoint" />
            <mxPoint x="260" y="410" as="targetPoint" />
          </mxGeometry>
        </mxCell>
        <mxCell id="43" value="" style="edgeStyle=elbowEdgeStyle;elbow=horizontal;exitX=1;exitY=0.5;exitPerimeter=0;entryX=0;entryY=0.5;entryPerimeter=0;fontStyle=1;strokeColor=#000000;strokeWidth=1;html=1;" parent="1" source="9" target="10" edge="1">
          <mxGeometry width="100" height="100" as="geometry">
            <mxPoint x="260" y="510" as="sourcePoint" />
            <mxPoint x="360" y="410" as="targetPoint" />
          </mxGeometry>
        </mxCell>
        <mxCell id="44" value="" style="edgeStyle=elbowEdgeStyle;elbow=horizontal;exitX=1;exitY=0.5;exitPerimeter=0;entryX=0;entryY=0.5;entryPerimeter=0;fontStyle=1;strokeColor=#000000;strokeWidth=1;html=1;" parent="1" source="10" target="11" edge="1">
          <mxGeometry width="100" height="100" as="geometry">
            <mxPoint x="460" y="510" as="sourcePoint" />
            <mxPoint x="560" y="410" as="targetPoint" />
          </mxGeometry>
        </mxCell>
        <mxCell id="45" value="" style="edgeStyle=elbowEdgeStyle;elbow=horizontal;exitX=0;exitY=0.5;exitPerimeter=0;entryX=1;entryY=0.5;entryPerimeter=0;fontStyle=1;strokeColor=#000000;strokeWidth=1;html=1;" parent="1" source="27" target="11" edge="1">
          <mxGeometry width="100" height="100" as="geometry">
            <mxPoint x="640" y="510" as="sourcePoint" />
            <mxPoint x="540" y="410" as="targetPoint" />
          </mxGeometry>
        </mxCell>
        <mxCell id="46" value="" style="edgeStyle=elbowEdgeStyle;elbow=vertical;exitX=0.5;exitY=1;exitPerimeter=0;entryX=0.5;entryY=0;entryPerimeter=0;fontStyle=1;strokeColor=#000000;strokeWidth=1;html=1;" parent="1" source="9" target="19" edge="1">
          <mxGeometry width="100" height="100" as="geometry">
            <mxPoint x="200" y="540" as="sourcePoint" />
            <mxPoint x="300" y="440" as="targetPoint" />
          </mxGeometry>
        </mxCell>
        <mxCell id="47" value="" style="edgeStyle=elbowEdgeStyle;elbow=vertical;exitX=0.5;exitY=1;exitPerimeter=0;entryX=0.5;entryY=0;entryPerimeter=0;fontStyle=1;strokeColor=#000000;strokeWidth=1;html=1;" parent="1" source="10" target="20" edge="1">
          <mxGeometry width="100" height="100" as="geometry">
            <mxPoint x="400" y="540" as="sourcePoint" />
            <mxPoint x="500" y="440" as="targetPoint" />
          </mxGeometry>
        </mxCell>
        <mxCell id="48" value="" style="edgeStyle=elbowEdgeStyle;elbow=vertical;exitX=0.5;exitY=1;exitPerimeter=0;entryX=0.5;entryY=0;entryPerimeter=0;fontStyle=1;strokeColor=#000000;strokeWidth=1;html=1;" parent="1" source="11" target="21" edge="1">
          <mxGeometry width="100" height="100" as="geometry">
            <mxPoint x="600" y="540" as="sourcePoint" />
            <mxPoint x="700" y="440" as="targetPoint" />
          </mxGeometry>
        </mxCell>
        <mxCell id="49" value="" style="edgeStyle=elbowEdgeStyle;elbow=vertical;exitX=0.5;exitY=1;exitPerimeter=0;entryX=0.5;entryY=0;entryPerimeter=0;fontStyle=1;strokeColor=#000000;strokeWidth=1;html=1;" parent="1" source="12" target="22" edge="1">
          <mxGeometry width="100" height="100" as="geometry">
            <mxPoint x="200" y="660" as="sourcePoint" />
            <mxPoint x="300" y="560" as="targetPoint" />
          </mxGeometry>
        </mxCell>
        <mxCell id="50" value="" style="edgeStyle=elbowEdgeStyle;elbow=vertical;exitX=0.5;exitY=1;exitPerimeter=0;entryX=0.5;entryY=0;entryPerimeter=0;fontStyle=1;strokeColor=#000000;strokeWidth=1;html=1;" parent="1" source="13" target="23" edge="1">
          <mxGeometry width="100" height="100" as="geometry">
            <mxPoint x="400" y="660" as="sourcePoint" />
            <mxPoint x="500" y="560" as="targetPoint" />
          </mxGeometry>
        </mxCell>
        <mxCell id="51" value="" style="edgeStyle=elbowEdgeStyle;elbow=horizontal;exitX=1;exitY=0.5;exitPerimeter=0;entryX=0;entryY=0.5;entryPerimeter=0;fontStyle=1;strokeColor=#000000;strokeWidth=1;html=1;" parent="1" source="12" target="13" edge="1">
          <mxGeometry width="100" height="100" as="geometry">
            <mxPoint x="260" y="630" as="sourcePoint" />
            <mxPoint x="360" y="530" as="targetPoint" />
          </mxGeometry>
        </mxCell>
        <mxCell id="52" value="" style="edgeStyle=elbowEdgeStyle;elbow=vertical;exitX=0.5;exitY=0;exitPerimeter=0;entryX=0.5;entryY=1;entryPerimeter=0;fontStyle=1;strokeColor=#000000;strokeWidth=1;html=1;" parent="1" source="12" target="19" edge="1">
          <mxGeometry width="100" height="100" as="geometry">
            <mxPoint x="200" y="600" as="sourcePoint" />
            <mxPoint x="300" y="500" as="targetPoint" />
          </mxGeometry>
        </mxCell>
        <mxCell id="53" value="" style="edgeStyle=elbowEdgeStyle;elbow=vertical;exitX=0.5;exitY=0;exitPerimeter=0;entryX=0.5;entryY=1;entryPerimeter=0;fontStyle=1;strokeColor=#000000;strokeWidth=1;html=1;" parent="1" source="13" target="20" edge="1">
          <mxGeometry width="100" height="100" as="geometry">
            <mxPoint x="400" y="600" as="sourcePoint" />
            <mxPoint x="500" y="500" as="targetPoint" />
          </mxGeometry>
        </mxCell>
        <mxCell id="54" value="DFD LEVEL 1 - ERP-AI SYSTEM" style="text;spacingTop=-5;align=center;fontSize=20;fontStyle=1" parent="1" vertex="1">
          <mxGeometry x="230" y="40" width="340" height="40" as="geometry" />
        </mxCell>
      </root>
    </mxGraphModel>
  </diagram>
</mxfile>
